inDegrees=no
num_controls=7
num_derivatives=13
num_iterations=53
num_multipliers=7
num_parameters=0
num_slacks=7
num_states=26
objective=0.425031
objective_accelerations=0.063260
objective_balance=0.006711
objective_effort=0.036913
objective_height=0.316513
objective_ligament=0.001634
solver_duration=677.570136
status=Solve_Succeeded
success=true
DataType=double
version=3
OpenSimVersion=4.5
endheader
time	/jointset/ground_pelvis/pelvis_tilt/value	/jointset/ground_pelvis/pelvis_tx/value	/jointset/ground_pelvis/pelvis_ty/value	/jointset/hip_l/hip_flexion_l/value	/jointset/hip_l/hip_adduction_l/value	/jointset/hip_l/hip_rotation_l/value	/jointset/back/lumbar_extension/value	/jointset/patellofemoral_l/patellar_flexion_l/value	/jointset/knee_l/knee_flexion_l/value	/jointset/knee_l/knee_adduction_l/value	/jointset/knee_l/knee_rotation_l/value	/jointset/ankle_l/ankle_angle_l/value	/jointset/subtalar_l/subtalar_angle_l/value	/jointset/ground_pelvis/pelvis_tilt/speed	/jointset/ground_pelvis/pelvis_tx/speed	/jointset/ground_pelvis/pelvis_ty/speed	/jointset/hip_l/hip_flexion_l/speed	/jointset/hip_l/hip_adduction_l/speed	/jointset/hip_l/hip_rotation_l/speed	/jointset/back/lumbar_extension/speed	/jointset/patellofemoral_l/patellar_flexion_l/speed	/jointset/knee_l/knee_flexion_l/speed	/jointset/knee_l/knee_adduction_l/speed	/jointset/knee_l/knee_rotation_l/speed	/jointset/ankle_l/ankle_angle_l/speed	/jointset/subtalar_l/subtalar_angle_l/speed	/forceset/tau_hip_flexion_l	/forceset/tau_hip_adduction_l	/forceset/tau_hip_rotation_l	/forceset/tau_knee_flexion_l	/forceset/tau_ankle_angle_l	/forceset/tau_subtalar_angle_l	/forceset/tau_lumbar_extension	lambda_cid13_p0	lambda_cid13_p1	lambda_cid13_p2	lambda_cid13_p3	lambda_cid13_p4	lambda_cid13_p5	lambda_cid14_p0	/jointset/ground_pelvis/pelvis_tilt/accel	/jointset/ground_pelvis/pelvis_tx/accel	/jointset/ground_pelvis/pelvis_ty/accel	/jointset/hip_l/hip_flexion_l/accel	/jointset/hip_l/hip_adduction_l/accel	/jointset/hip_l/hip_rotation_l/accel	/jointset/back/lumbar_extension/accel	/jointset/patellofemoral_l/patellar_flexion_l/accel	/jointset/knee_l/knee_flexion_l/accel	/jointset/knee_l/knee_adduction_l/accel	/jointset/knee_l/knee_rotation_l/accel	/jointset/ankle_l/ankle_angle_l/accel	/jointset/subtalar_l/subtalar_angle_l/accel	gamma_cid13_p0	gamma_cid13_p1	gamma_cid13_p2	gamma_cid13_p3	gamma_cid13_p4	gamma_cid13_p5	gamma_cid14_p0
1.5	-0.3639506437290325	-0.04309055262998401	0.7260176889329135	1.33123207485338	-0.2686478682780652	-0.009263028152309609	-0.3564578174130158	0.9823883214078796	0.982388321407882	-0.05968150804730568	0.1741157080569836	0.2130397170598697	0.03351771576095292	0.4608221256314681	0.1489520593996479	0.6784889796460616	-2.495953142546936	-0.07747596585713691	-0.5426130406464286	0.5516133717240751	-2.533185371559733	-2.533185371559325	-0.3037933809053597	-0.0107945188087722	-0.638032892007817	-0.2329704003874845	-0.2150758478238882	0.04352870819564814	-0.008936142840382619	-0.2783781420040887	0.1075196218249029	-0.009560551912193207	0.2084877730670859	-4.465622702109441	6.391521705916508	-3.086190338851239	-5.03249891977563	-600.3188481670982	-24.84690961517299	-10.23306594363502	0.9319524846967209	0.7871383158467496	-0.6024364450505295	-1.675965120131938	0.2997385812107933	-0.7257558720950535	2.007370648844737	-1.62888932173929	-1.628889321739237	-0.151116617982743	-0.234938035958637	-1.030234359651691	0.3448381179899285	-1.56713161573994e-07	2.411677834701355e-06	2.583090430599329e-06	5.407733796225152e-07	-1.3114144836292e-08	1.343650986519077e-06	-4.055115146961274e-08
1.51	-0.3592964199308778	-0.04156179080282457	0.7327709844195566	1.306191743412759	-0.2694073645330654	-0.0147278839203052	-0.3508422711671055	0.9569785117294256	0.956978511729352	-0.06272478129515419	0.1739979252785745	0.2066090687340042	0.03120573878459057	0.4699406464577951	0.1567846977787092	0.6720231824925552	-2.511784392728476	-0.07439417427438938	-0.5502640134242536	0.5714234500295021	-2.548420423491812	-2.548420423491329	-0.3048917554483881	-0.01278874187713479	-0.6479708571985044	-0.2293763325402742	-0.2079592169506648	0.04343734564145963	-0.009633867931671153	-0.2744449637233083	0.1091777799577966	-0.009571439319109445	0.2025349898168208	-3.574995767123919	5.976201571576867	-2.718302858129398	-5.408238271846249	-594.3555660584152	-24.74161396357095	-11.87735835392351	0.8895028383147068	0.7790856773332946	-0.6907067418613267	-1.487399110280684	0.3162415015830645	-0.7707231285499041	1.956962307297855	-1.417376420346085	-1.417376420334944	-0.09341602823196113	-0.1861639646959871	-0.9566009869908649	0.3733855064914642	-1.863635028556368e-07	2.092918064723145e-06	2.549090021700328e-06	5.149087980522088e-07	-5.433093682011418e-08	1.098457726707894e-06	-6.530911594112376e-08
1.52	-0.3545534707331091	-0.03995515077619467	0.7394552108563918	1.281002960641708	-0.2701352744612732	-0.02026644044567929	-0.3450307969609583	0.9314270388733746	0.9314270388732148	-0.06577988191960935	0.1738593003649804	0.2000828360785896	0.02893104136438132	0.4785672055526656	0.1645276992937408	0.6646751696846321	-2.52564340863464	-0.07115870050059282	-0.5573531921190253	0.5907989637711626	-2.561518007080047	-2.56151800707949	-0.3061588562221833	-0.01496294584232582	-0.6571497579177416	-0.2255144891568726	-0.200842586077428	0.04334598308726266	-0.01033159302291577	-0.270511785442528	0.1108359380906862	-0.009582326726036438	0.1965822065665701	-2.691843725015517	5.564583842464231	-2.35374226260903	-5.777429058249451	-588.4756562399941	-24.64082423584052	-13.53048438244388	0.8335601384056457	0.7692109430406187	-0.7788795759339409	-1.281518265056819	0.33047501942063	-0.6133970554844572	1.920457736091558	-1.201395652970491	-1.201395652970473	-0.184861864136047	-0.2709342153242466	-0.8784214653618727	0.3983932252281567	-2.077187672559123e-07	1.92242424927915e-06	2.557267485361907e-06	5.012546120743996e-07	-7.830727540109605e-08	9.322646204316323e-07	-8.096436295061684e-08
1.53	-0.3497267996514055	-0.03827161564604672	0.7460616231336837	1.255685615702857	-0.2708298104950125	-0.02587376211469979	-0.3390279520401556	0.905755471169068	0.9057554711690983	-0.06884754118978841	0.1736982792060189	0.1934688016989563	0.02669660274307103	0.4866746982038065	0.1721544321244537	0.6564677366627507	-2.537474364892912	-0.0677022515680423	-0.5640758067091202	0.6096771524354812	-2.572418269517727	-2.572418269517759	-0.3073188508833586	-0.01724403338978239	-0.6655144215741726	-0.2213052081707326	-0.1935766675510174	0.0432766569936002	-0.01115057080295662	-0.2667020825257797	0.1125862113154254	-0.00960395497938466	0.1904743062533897	-1.789806832736785	5.158340542313528	-1.994623479349959	-6.123459134732278	-582.7001008297494	-24.55747031153063	-15.18829156401157	0.785492527467585	0.7557703027490636	-0.8626249310356123	-1.081213042468904	0.359616705522816	-0.6964876118046469	1.857569238702373	-0.977733869288833	-0.9777338693771133	-0.07307249922127972	-0.2076113753672313	-0.7939965178075163	0.441786399362458	-2.20260512469735e-07	1.909463010527757e-06	2.610258938619101e-06	5.005739714136187e-07	-8.396563224156027e-08	8.50009177286225e-07	-8.694797265671597e-08
1.54	-0.3448218239033804	-0.03651254001765877	0.7525817711276123	1.230260495454181	-0.2714885046643432	-0.03154726871985136	-0.3328391112712882	0.8799862223743634	0.879986222374568	-0.07192510125304163	0.1735142641013758	0.186775419142355	0.02450617510443321	0.4942281388148998	0.1796357989417431	0.647422313012066	-2.547198470601441	-0.06399032762147067	-0.5705901793405206	0.6279981333838002	-2.581054225160289	-2.58105422516091	-0.3081390148290598	-0.01956173497366665	-0.6730193933115611	-0.2167122926223762	-0.1863107490246037	0.04320733089990931	-0.01196954858290923	-0.2628923796090369	0.1143364845401545	-0.009625583232768669	0.1843664059402177	-0.8955833697954914	4.756949679087761	-1.640260891397834	-6.457809048890165	-577.0139010365026	-24.47340744903776	-16.84582889147256	0.7227497303963832	0.740137740355715	-0.9464777016946461	-0.8601481551082446	0.3815700222248877	-0.5717486637455947	1.809016192891809	-0.7485342939469666	-0.748534293947014	-0.1168957210411446	-0.2782570226097256	-0.7064830815536154	0.4751201376713611	-2.323687379311864e-07	1.877997329186631e-06	2.636300762082526e-06	4.970592678184841e-07	-9.288025760422095e-08	7.524811804640266e-07	-9.161845955618864e-08
1.55	-0.3398441746241928	-0.03467949181289795	0.7590073618485019	1.204748876142134	-0.2721087421129147	-0.03728432439951854	-0.3264701008258818	0.854142091774717	0.8541420917748639	-0.07500947422470865	0.1733066573693997	0.1800113644892742	0.02236362387868474	0.5012005821183951	0.1869368996721367	0.6375654000760289	-2.554752895474725	-0.06001529111148499	-0.5767369736535339	0.6456830994754132	-2.587381681017153	-2.587381681017516	-0.3087101108295616	-0.02198394605151058	-0.6796451483594756	-0.2117398732485782	-0.1789346517661617	0.04320993092948563	-0.01289286416674809	-0.2591701544810204	0.116068634542528	-0.009673199885480665	0.1781256318742919	-0.02308867121537833	4.376506804450874	-1.295925135556934	-6.707624845343446	-571.4852594952184	-24.37407183725119	-18.49654809506065	0.6693132684978701	0.7196521905527535	-1.024885269852017	-0.6472302484304552	0.4111946970297852	-0.6236587045553043	1.730108384179375	-0.5162998626343033	-0.5162998625955405	-0.02301651907160604	-0.228342427268095	-0.6185819609905174	0.5164201328148074	-2.439774732431667e-07	1.825211311818206e-06	2.631291925131394e-06	4.90279230842464e-07	-1.055466706120208e-07	6.373565457098744e-07	-9.477600061324397e-08
1.56	-0.3347998365843232	-0.03277452141059847	0.7653304660039721	1.179172884462367	-0.2726880843500407	-0.04308035080023571	-0.319927866406181	0.8282463968902873	0.8282463968903722	-0.0780987181523306	0.1730740006712438	0.1731854602367993	0.02027242030579029	0.5075658909487381	0.1940202384494761	0.626924999928255	-2.560072944147684	-0.05581128533573051	-0.5823843235455889	0.6626429282423434	-2.591367082117145	-2.591367082117249	-0.3091132060107437	-0.0245717282052035	-0.6853893131906015	-0.2064427620515533	-0.1715585545077131	0.04321253095904398	-0.01381617975049491	-0.255447929353009	0.1178007845448939	-0.009720816538217535	0.1718848578083766	0.8401621183080722	4.002421379243454	-0.9580184676310518	-6.936018348542672	-566.0677718103861	-24.26992559577207	-20.1321044033958	0.6013228357661607	0.6965853497446614	-1.103175144042051	-0.4132729150429772	0.4273638753786942	-0.4718597795539262	1.663988727955348	-0.2801233425723917	-0.2801233425723952	-0.08329555717716464	-0.3113712377794738	-0.530165038196185	0.5400585023166506	-2.519131099547074e-07	1.745831155410718e-06	2.608386898620686e-06	4.741585501264296e-07	-1.096689326417875e-07	5.227809865583924e-07	-9.970844223958512e-08
